<?xml version="1.0" standalone="no"?><!DOCTYPE svg PUBLIC "-//W3C//DTD SVG 1.1//EN" "http://www.w3.org/Graphics/SVG/1.1/DTD/svg11.dtd"><svg t="1748684834974" class="icon" viewBox="0 0 1024 1024" version="1.1" xmlns="http://www.w3.org/2000/svg" p-id="16127" xmlns:xlink="http://www.w3.org/1999/xlink" width="512" height="512"><path d="M608 128c0 35.2 28.8 64 64 64H352c17.6 0 33.6-7.04 45.12-18.88 11.84-11.52 18.88-27.52 18.88-45.12s14.4-32 32-32h128c17.6 0 32 14.4 32 32z" fill="#77cbf6" p-id="16128" data-spm-anchor-id="a313x.search_index.0.i23.31893a819fa4SC" class="selected"></path><path d="M768 256v608c0 35.2-28.8 64-64 64H320c-35.2 0-64-28.8-64-64V256c0-35.2 28.8-64 64-64h384c35.2 0 64 28.8 64 64z" fill="#EDF6FF" p-id="16129"></path><path d="M768 864V256H352c-17.6 0-32 14.4-32 32v640h384c35.2 0 64-28.8 64-64z" fill="#ffffff" p-id="16130" data-spm-anchor-id="a313x.search_index.0.i20.31893a819fa4SC" class=""></path><path d="M256 448c-17.6 0-32-14.4-32-32V256c0-52.8 43.2-96 96-96h32c17.6 0 32 14.4 32 32s-14.4 32-32 32h-32c-17.6 0-32 14.4-32 32v160c0 17.6-14.4 32-32 32zM704 960H320c-52.8 0-96-43.2-96-96V544c0-17.6 14.4-32 32-32s32 14.4 32 32v320c0 17.6 14.4 32 32 32h384c17.6 0 32-14.4 32-32V256c0-17.6-14.4-32-32-32h-32c-17.6 0-32-14.4-32-32s14.4-32 32-32h32c52.8 0 96 43.2 96 96v608c0 52.8-43.2 96-96 96z" fill="#77cbf6" p-id="16131" data-spm-anchor-id="a313x.search_index.0.i25.31893a819fa4SC" class=""></path><path d="M672 224H352c-17.6 0-32-14.4-32-32s14.4-32 32-32c8.64 0 16.32-3.2 22.08-9.28 6.72-6.4 9.92-14.08 9.92-22.72 0-35.2 28.8-64 64-64h128c35.2 0 64 28.8 64 64 0 17.6 14.4 32 32 32s32 14.4 32 32-14.4 32-32 32z m-229.44-64h138.88A96 96 0 0 1 576 128h-128c0 11.2-1.92 21.76-5.44 32zM480 800c-5.44 0-10.88-1.28-16-4.16a31.616 31.616 0 0 1-11.84-43.52l100.8-176H416c-11.2 0-21.44-5.76-27.2-15.04a31.552 31.552 0 0 1-1.28-31.04l96-192c8-15.68 27.2-22.08 42.88-14.4 15.68 8 22.08 27.2 14.4 42.88L467.84 512H608c11.52 0 22.08 6.08 27.52 16 5.76 9.92 5.76 22.08 0 32l-128 224c-5.76 10.24-16.32 16-27.52 16z" fill="#77cbf6" p-id="16132" data-spm-anchor-id="a313x.search_index.0.i21.31893a819fa4SC" class=""></path></svg>